<svg id="Layer_1" data-name="Layer 1" xmlns="http://www.w3.org/2000/svg" viewBox="0 0 1437.16 299.42"><defs><style>.cls-1{fill:#050a0e;}</style></defs><title>logo-ps4</title><path class="cls-1" d="M251.59,87.84A16.59,16.59,0,0,1,257,88.9l3.86.43c3,1.06,6.12,1.51,9.14,2.46,1.33.17,2.67.34,4,.53,1.3.49,2.61,1,3.94,1.4a67.21,67.21,0,0,0,7.59,1.57l-.09.44a94.54,94.54,0,0,1,11.19,3A67.91,67.91,0,0,1,307,101.8l3.5.35-.05.8,2.9.34c1.23.48,2.49.93,3.75,1.4,2.37.57,4.69,1.34,7,2.09,2.67.88,5.33,1.82,8.06,2.53,1.9.66,3.83,1.27,5.76,1.87,1.37.51,2.77,1,4.15,1.52,1,.34,1.94.68,2.91,1,1.36.49,2.72,1,4.09,1.47l3.8,1.64c1.08.4,2.15.83,3.22,1.24,1.63.76,3.26,1.51,4.9,2.23,1.72.91,3.43,1.83,5.11,2.81l.93-.06a66.59,66.59,0,0,0,7,4.24q1.8,1.2,3.59,2.43c4.81,2.92,8.74,7,12.93,10.66l-.12.93.66-.43a121.42,121.42,0,0,1,7.89,10.57c.63,1.19,1.26,2.39,1.88,3.6l.37-.15q.55,1.72,1.2,3.42c.61,1.31,1.21,2.61,1.83,3.92,1.25,4.23,2.92,8.36,3.47,12.76l.66.07c.11,2.33.24,4.67.31,7l.69-.09c.6,10.8,2,21.69.53,32.47-.18,2.23-.31,4.47-.42,6.71l-.66-.21c-.14,1.87-.29,3.74-.48,5.62a57.25,57.25,0,0,0-2,5.89c-.52,1.37-1,2.76-1.49,4.14q-1,2.06-2.22,4l-.09.75c-.36.61-1.1,1.81-1.47,2.41l-.23.18c-.8,1.23-1.65,2.44-2.48,3.65L397.2,249l-.32,0c-.25.37-.75,1.1-1,1.46q-1.8,1.72-3.63,3.42c-1.42.93-2.83,1.88-4.24,2.8L386,258l-1,.07c-8.54,4.68-18.69,3.18-28,2.65-3.62-1.23-7.34-2.12-10.88-3.58l-3.73-1.36,0-1-1.83.5,0-1.33-.93.07c.15-24.85,0-49.69.07-74.54-.05-9.84.16-19.68-.32-29.52h-.67c-.6-8.12-8.74-14.68-16.83-13l-2.06,1.37a16.83,16.83,0,0,0-4.53,13.22q-.1,108.45,0,216.9c.06,6.21-.21,12.44.35,18.62l-2.62.17c.59-.45,1.17-.93,1.73-1.42-3.06.72-5.89-.72-8.7-1.68s-5.35-1.78-8.07-2.49c-1.32-.49-2.63-1-3.93-1.47l-2.58-.25,0-.61a54.55,54.55,0,0,1-7-2,50.12,50.12,0,0,0-6.11-1.65l.1-.58-2.61-.27c-1.27-.55-2.54-1.05-3.82-1.55-1-.26-2-.54-3.05-.83-1.33-.43-2.65-.83-4-1.28-3-1-6-1.88-9-2.9-1.49-.43-2.95-.88-4.41-1.34Q251.65,227.37,251.59,87.84Z" transform="translate(-107.17 -87.84)"/><path class="cls-1" d="M835.05,158.76c12.17-.22,25.09,0,35.94,6.22l1.48,0-.11.74a45.87,45.87,0,0,1,8.85,6.53l1,1.16,4.08,4.83c.45.83.9,1.67,1.36,2.5s1.23,1.84,1.86,2.76c0,.25,0,.75,0,1,1,1.91,1.87,3.9,2.83,5.84,0,.7.1,2.1.14,2.8l.86-.09c.12,1.84.26,3.67.45,5.51,1.56,6,.72,12.34.59,18.48h-.65c-.1,1.82-.22,3.63-.33,5.45-.89,2.37-1.58,4.82-2.69,7.1-.06.3-.16.9-.21,1.19-1.24,2.23-2.42,4.49-3.64,6.73a44.32,44.32,0,0,1-8.63,9.4c-1.42,1-2.8,2-4.15,3.09h-.26a40.77,40.77,0,0,1-9.3,4.39l0,.37a32.69,32.69,0,0,0-7.43,2,46.18,46.18,0,0,0-8.93,1.16c-55.52.37-111.05-.17-166.57.27,0,.18,0,.53,0,.71A10.8,10.8,0,0,0,676,261l-1.34-.16V262l-.8-.12a34.24,34.24,0,0,0-8.09,10.42c-.58,1.7-1.16,3.4-1.64,5.14-1.74,6.87-1.14,14-1.23,21-.07,14.83.12,29.67-.12,44.5-13.07.17-26.13,0-39.2.06-.23-17.51,0-35-.15-52.52.15-4.36-.21-8.79.72-13.08.25-1.34.48-2.67.7-4,.42-1.34.84-2.69,1.27-4a51.12,51.12,0,0,1,3.17-7.61,64,64,0,0,1,5.61-8.68h.77l-.25-.86,2.19-1.56-.13-.91.8.29,1-1.31c2-1.59,3.92-3.18,5.87-4.78l1.34.13.22-.86,3.43-1.47c1.28-.56,2.59-1.09,3.89-1.64,4.27-1.12,8.6-2.28,13.07-2.08q79-.09,158,0c3.37-.1,6.86.39,10.14-.65,1.58-.37,3.19-.7,4.78-1.14a23.49,23.49,0,0,0,12-11.76c.72-2,1.43-4,2.25-6,.14-1.88.26-3.77.34-5.65l.75.16c0-3.28,0-6.56,0-9.84l-.73,0c-.07-1.62-.18-3.25-.27-4.86-.45-1.23-.89-2.46-1.29-3.7-.41-1-.86-2.07-1.32-3.08-.12-.47-.38-1.42-.51-1.89-.72-.82-1.41-1.64-2.08-2.48l-.25-.11c-.61-.83-1.2-1.66-1.79-2.49l-1.28-.76c-1.82-1.57-3.79-3.07-6.27-3.32,0-.27-.05-.8-.07-1.07-1.53-.15-3.06-.31-4.56-.49a11.69,11.69,0,0,0-3.81-.76q-103.8-.06-207.61,0c0-6.44-.09-12.89.06-19.33Q729.26,158.7,835.05,158.76Z" transform="translate(-107.17 -87.84)"/><path class="cls-1" d="M1077.51,158.81l0-.63c39.86.17,79.73,0,119.59.08l3.2.9c-.12,6.29,0,12.58-.09,18.87-32.71.2-65.42,0-98.13.11-5.33.23-10.77-.63-16,.69a29,29,0,0,0-9.2,3.32,26.12,26.12,0,0,0-8.22,10.2c-.59,1.77-1.18,3.54-1.88,5.27-.16,1.33-.28,2.66-.4,4-1,3.21-.75,6.59-.78,9.9,0,27,0,53.94,0,80.91-.06,4.63,0,9.3-1.07,13.84l-.61-.2c-.14,1.46-.28,2.93-.4,4.4-3,9-8.16,17.4-16,22.95l-.1.68-1.66-.13-.06.89c-1.6.82-3.16,1.69-4.71,2.58-1,.38-1.88.78-2.8,1.18a41,41,0,0,1-4.72,1.6l.14.46c-14,3.4-28.42,2.16-42.66,2.38-35.07-.11-70.15.21-105.22-.16-.09-6.31,0-12.62-.07-18.93l1,.22-.18-1.07c38.51-.07,77,0,115.53,0,3.49.15,6.84-.93,10.1-2.09a52.93,52.93,0,0,0,6-4.22,29.3,29.3,0,0,0,5.66-9.14c2.31-5.79,1.89-12,2-18.12a43.13,43.13,0,0,0,.31-7c-1-6.32,0-12.7,0-19a45.53,45.53,0,0,1,0-10c-.73-3.3-.19-6.67-.3-10a52.34,52.34,0,0,0,.26-7c-1-8,.34-16-.11-24a18.62,18.62,0,0,1,.1-7,37.6,37.6,0,0,1,.93-8.06c.19-1.48.37-3,.55-4.44l.58,0a38.32,38.32,0,0,1,1-4.49,83.76,83.76,0,0,1,3.85-8.2,45.29,45.29,0,0,1,4.25-5.62l1.17-1.06-.21-.4c.93-.83,1.87-1.67,2.84-2.48a36.45,36.45,0,0,1,9.22-6.19l.18-.37c2.29-.89,4.57-1.82,7-2.51l0-.65,4-.16-.2-.73,4.7-.59A57.59,57.59,0,0,1,1077.51,158.81Z" transform="translate(-107.17 -87.84)"/><path class="cls-1" d="M1425.12,159.45c2.29-.35,4.6-.67,6.88-1.22a21.76,21.76,0,0,0,4.2,1,28.08,28.08,0,0,1,4.59,2.51l1,1c.87,1.12,1.75,2.27,2.61,3.43.44,1.61.93,3.2,1.39,4.83l.56,0c.49,44,0,88.06.25,132.09,13,.21,26,.07,39,.09-.06.42-.16,1.25-.22,1.67l1,0c-.06,6,0,12.06-.08,18.09-13.23.36-26.46-.09-39.69.24-.23,6.58,0,13.16-.17,19.74-13,.19-25.9,0-38.84.1-.24-.36-.72-1.08-.95-1.44.11-6.14.25-12.3-.13-18.44-69.49-.18-139,0-208.46-.09-3.52,0-7.12-.14-10.24-1.94l-.94,0a18,18,0,0,1-4.5-5.47c.07-1.77.19-3.54.38-5.3,1-1.39,2-2.76,3-4.13,1.73-1.58,3.48-3.15,5.29-4.65,3.34-1.94,6.61-4,10-6,1.32-.88,2.63-1.8,3.93-2.74l1.33.15.07-.84c2.64-1.55,5.23-3.2,7.91-4.68l.13-.71,1.18.24.06-1.2,1.42.15,1.84-1.56c1.14-.61,2.32-1.21,3.51-1.79l.07-.87,1.72.24.09-.85c2-1.13,3.87-2.31,5.8-3.49,1.13-.71,2.31-1.41,3.49-2.07l.07-.29c1.77-1,3.52-2,5.27-3,.44-.3,1.33-.88,1.78-1.17,1.41-.83,2.81-1.68,4.22-2.53,2.38-1.4,4.7-2.9,7.1-4.3,1.7-1,3.39-2.13,5-3.32l.89-.07a27.73,27.73,0,0,1,5.35-3.44l.11-.31c3-1.69,5.94-3.49,8.84-5.36,2-1.2,4-2.4,5.91-3.77h.93l1.9-1.69c1.3-.75,2.56-1.52,3.87-2.29,2.37-1.48,4.74-3,7.16-4.39,1.15-.7,2.33-1.41,3.53-2.08l0-.81,1.9.3-.06-.89c1.63-.87,3.25-1.75,4.91-2.6l0-.36a70.57,70.57,0,0,0,6.75-4.23l1.3,0,0-.7c1.21-.76,2.46-1.53,3.67-2.33h.79l1.69-1.33.13-.67,1.26.06c1-.81,2.14-1.61,3.25-2.37A40.61,40.61,0,0,0,1327,218l1.23.1.14-.71c4.3-2.4,8.34-5.23,12.61-7.68,2.31-1.43,4.61-2.9,6.92-4.38a79,79,0,0,0,10.11-6.35l.88,0a55.89,55.89,0,0,1,5-3.33c2.45-1.46,4.87-3,7.21-4.6l1.18.11.16-.81,1.63-1.32.81.06a45,45,0,0,1,5.16-3.33c1-.66,2.11-1.32,3.17-2,.8-.51,1.61-1,2.44-1.52a47.64,47.64,0,0,0,6.47-4.23l.89.13a21.92,21.92,0,0,1,5.26-3.5l.12-.34,2.76-1.5c2-1.32,4.11-2.6,6.24-3.79.86-.68,1.74-1.35,2.64-2l1.34.08.11-1,1.12.12.09-1.12,1.73.2.08-.88c2.49-1.25,5-2.54,7.55-3.64C1423.05,160.24,1424.07,159.85,1425.12,159.45Zm-30.47,40.75c-4.48,2.85-9.13,5.42-13.47,8.48-1,.54-2.06,1.09-3,1.64-1.32.83-2.63,1.65-3.92,2.49-1.5.87-3,1.76-4.46,2.61l-.19.7-.81-.14-1.94,1.29c-1.33.88-2.64,1.79-3.89,2.75l-1.27-.21-.11.83c-1.17.68-2.33,1.39-3.45,2.12-1.49.87-3,1.75-4.44,2.59l-.11.34c-1.77,1-3.49,2-5.22,3-1.12.76-2.25,1.54-3.31,2.34l-1.38-.16,0,1.19-1.17-.16,0,1.17-1.77-.2-.21,1.24-1.3,0a94.52,94.52,0,0,1-9.71,6.15l-.15.28c-1.79,1-3.53,2-5.24,3.13-6.3,3.92-12.64,7.8-19,11.7-1.14.71-2.26,1.39-3.42,2l-.06.31c-2.64,1.45-5.2,3-7.81,4.5q-1.93,1.35-3.8,2.74l-.93.12-2.39,1.44,0,.35c-1.16.61-2.28,1.23-3.4,1.87-2.84,1.86-5.75,3.61-8.65,5.38a100.21,100.21,0,0,1-8.91,5.32l0,.42c-1.06.47-2.1.95-3.12,1.43l-.07.4c-2.08,1.18-4.11,2.44-6.21,3.56l-.1.75-1.26,0a96,96,0,0,1-8.91,5.76l-1.86,1.25-.82-.16,0,1.21-1.7-.13-.1.82c-1.06.5-2.11,1-3.14,1.52l-.1.87-1.69-.22,0,.89c-1,.47-2.1.93-3.12,1.4l0,.56-3,1.51-.12,1.84c2.52.12,5,.18,7.58.16,56.27-.09,112.53.06,168.79-.08.22-26.24,0-52.49.09-78.73-.21-10.2.47-20.44-.41-30.6C1402,194.92,1398.62,198.19,1394.65,200.2Z" transform="translate(-107.17 -87.84)"/><path class="cls-1" d="M236.52,257l3.11,0c-.06,12.2.12,24.41-.12,36.61a34,34,0,0,0-6.5,2.24l-2.25.4-3.28,1.63-1.64.31c-4.22,1.71-8.61,2.95-12.78,4.78l-2.62.28v.61c-1.52.46-3,1-4.5,1.52-1.18.36-2.36.7-3.55,1l.16.49c-1.17.29-2.32.6-3.47.94-1.57.54-3.13,1.06-4.72,1.52l.08.65-2.57.26a29.32,29.32,0,0,1-5.37,2l-.05.49c-4.73,1-9.14,3-13.7,4.57l-3.92,2-3.19,2.23c-.49,1.5-1,3-1.34,4.55l.9-.06,1.35,1.45-.12.45c1.19.48,2.37,1,3.55,1.51,1.51.4,3.05.68,4.6.95l-.27.57a188.53,188.53,0,0,0,22.3,0l-.26-.71c4.36.07,8.52-1.33,12.52-2.92l2.23-.45c1.2-.55,2.41-1.09,3.62-1.61,1.49-.47,3-1,4.46-1.44,1.26-.52,2.54-1,3.82-1.51s2.74-.93,4.12-1.37c2.19-.81,4.37-1.65,6.49-2.64l1.92,0,0-1c1.37-.13,2.75-.25,4.12-.39,0,10.75-.06,21.51.06,32.26a64.88,64.88,0,0,1-8.08,1.24v.58c-3.36,0-6.71.28-10.06.44l.32.71c-4,.12-7.95,0-11.86.65-6.66.21-13.4.6-20-.3-3.88-.2-7.76-.32-11.64-.43l.18-.72c-2.95-.15-5.89-.31-8.84-.41-.33-1.2-1.13-2.73-1.84-.91l-3.18-.06-.47-.44a25.39,25.39,0,0,1-5.2-1,30.29,30.29,0,0,1-5.1-1.11c-1.27-.26-2.55-.49-3.83-.7-1.34-.45-2.69-.89-4-1.37-1.19-.13-2.38-.26-3.57-.37l.09-.59a75.35,75.35,0,0,1-9.51-2.86c-1.7-.51-3.38-1.09-5.08-1.64-1-.52-2-1.06-3-1.61l-1.09,0-2.06-1.27c-1.7-.93-3.39-1.9-5-2.9-1.68-1.41-3.32-2.87-5-4.33-1.06-1.34-2.12-2.69-3.16-4a18.63,18.63,0,0,1-.16-14.31,34.09,34.09,0,0,1,7.87-7.48c1.72-1.09,3.47-2.12,5.28-3l0-.8,1.79.23.17-.81c2.13-.93,4.2-2,6.27-3,1.67-.71,3.31-1.46,4.94-2.24,1.09-.44,2.18-.87,3.27-1.28a60,60,0,0,1,8.41-3.06l-.07-.67,2.77-.17c1.06-.56,2.14-1.11,3.23-1.64l1.75-.43c1-.37,2-.72,3-1.06,3.18-1.22,6.42-2.29,9.61-3.48l3.19-1.07c1.64-.61,3.28-1.22,4.87-1.95l2.32-.47c3.15-1.39,6.44-2.42,9.66-3.64,2.69-.91,5.39-1.84,8-3l2.17-.36c1.64-.75,3.3-1.43,5-2.07,1.19-.33,2.39-.64,3.6-.94l-.11-.48a61.54,61.54,0,0,0,7.7-2.46c1.58-.6,3.19-1.15,4.77-1.77,2.4-.83,4.79-1.69,7.22-2.43,1.24-.49,2.49-1,3.74-1.43s2.65-.91,4-1.38,2.47-.78,3.72-1.11Z" transform="translate(-107.17 -87.84)"/><path class="cls-1" d="M389.57,272.82l-.17-.68c5.22.2,10.45-.14,15.67.15,4.61.76,9.3.67,13.95,1.08a54.25,54.25,0,0,0,5.84.61l-.3.67c2.81.1,5.62.23,8.43.45,3.6,1.16,7.46,1.22,11,2.54,1.47.2,3,.38,4.43.56l-.06.61c3.48.26,6.72,1.66,10.09,2.46l0,.38c4.27.83,8.23,2.74,12.38,4,1.12.5,2.25,1,3.39,1.55,1.31.56,2.63,1.13,3.93,1.77l1.3-.17.13,1.34,1.47-.13c2.05,1.55,4.18,3,6.12,4.71l1.17.12v1.18l.76,0c.59.8,1.2,1.6,1.81,2.4l1.67,1.86c0,.25,0,.76,0,1,.59.9,1.18,1.82,1.77,2.74.16,3.5.22,7.13-1.58,10.27-.51.78-1,1.57-1.51,2.36L490.18,318l-.28,0-1.08,1.36a71.56,71.56,0,0,1-15.75,10.26,82.72,82.72,0,0,1-8.22,3.54l-3,1c-6.89,2.67-13.93,5-20.84,7.55-1.66.59-3.31,1.17-5,1.73-1,.39-2,.81-3,1.24l-2.28.59c-1.59.67-3.2,1.26-4.82,1.83l-3.17,1.09c-3.22,1.25-6.48,2.36-9.71,3.57-1.38.45-2.74.94-4.1,1.42s-2.6,1-3.88,1.48c-1,.34-2.07.68-3.1,1-1.67.6-3.32,1.23-4.92,2l-2.22.38c-1.62.72-3.25,1.39-4.9,2-1.18.37-2.37.72-3.56,1.05l.05.43c-5.9,1.47-11.47,4-17.23,5.89-1.08.37-2.14.76-3.19,1.17-2.38.78-4.72,1.69-7.08,2.51-2.68,1-5.37,2-8.06,2.93-1,.36-2.05.72-3.08,1.06-2.23.81-4.46,1.61-6.67,2.45-4.79,1.54-9.36,3.86-14.35,4.7.1-11.81,0-23.62.06-35.42.92-1.84,3.44-1.79,5.1-2.71,2.4-.74,4.74-1.63,7.12-2.45q3.12-1.12,6.27-2.21c1.75-.66,3.51-1.29,5.32-1.78l-.09-.7c1.31-.11,2.63-.2,4-.29v-.66c2.53-.76,5-1.7,7.52-2.55,1.66-.62,3.32-1.21,5-1.79,1-.4,2-.78,3-1.15s2.07-.69,3.11-1c1.6-.65,3.21-1.26,4.85-1.83q6.42-2.18,12.78-4.57l3.2-1.15,1.44-.27,3.43-1.65,2.21-.37c4.67-2,9.49-3.52,14.26-5.22l3.1-.92-.06-.48c1.2-.28,2.39-.58,3.58-.91a75.39,75.39,0,0,1,7.58-2.62l0-.39a14.55,14.55,0,0,0,4.72-2.2l.85.08,1.13-1.59,1.47-.79c1.42-2.73.25-5.4-2.38-6.72-1.11-.41-2.2-.85-3.29-1.28-2.08-.93-4.38-.83-6.6-.93l.16-.65c-5.13.05-10.39-.75-15.4.63-2,.11-4,.21-6,.36-2.68.9-5.44,1.45-8.12,2.29s-5.38,1.87-8.07,2.77c-1.33.51-2.64,1-3.93,1.62l-2,.29c-1.66.75-3.34,1.43-5.06,2a37.43,37.43,0,0,1-8.34,2.37c0,.23,0,.71-.05.94-1.53.33-3.05.68-4.55,1.14-1,.35-1.91.72-2.85,1.09-1.73.59-3.44,1.2-5.15,1.82-1.3.42-2.58.86-3.85,1.35-2.71.94-5.44,1.84-8.09,2.94l-2,.42c-1.69.74-3.4,1.43-5.14,2-1,.32-2,.64-3,.94a31.2,31.2,0,0,1-7.1,2.25c0-11.33.08-22.67,0-34a10.76,10.76,0,0,1,.73-4.31,23.91,23.91,0,0,0,6.51-1.92l2.78-.51a72.92,72.92,0,0,1,11.16-3.09,25.07,25.07,0,0,1,5-1c1.63-.45,3.27-.86,4.9-1.36,1.88-.16,3.78-.31,5.68-.44l-.13-.71c3-.15,6-.34,9-.43l-.23-.69A148.3,148.3,0,0,1,389.57,272.82Z" transform="translate(-107.17 -87.84)"/><path class="cls-1" d="M1539.94,322.21c1.15-.09,2.33-.16,3.53-.24,1.7,6.49.25,13.32.83,19.95l-1,0,.38,1.39-1.18-.74c-.13.51-.37,1.53-.5,2-1.1-4.83-.64-9.81-.5-14.71l-1.74,0c-.76,2.85-1.62,5.66-2.61,8.43a26.62,26.62,0,0,0-1.07,4.42l-3.25.26c-1.67-5.21-3.5-10.36-5.11-15.59-.45,5.11-.28,10.25-.25,15.37l-2.94.17c0-6.77,0-13.53,0-20.3,1.33,0,2.62-.05,4-.06.42,1.48.85,3,1.25,4.47l.45-.07a82.82,82.82,0,0,0,2.95,9.42c.29,1.09.63,2.21,1,3.32C1536,333.94,1538.27,328.17,1539.94,322.21Z" transform="translate(-107.17 -87.84)"/><path class="cls-1" d="M1505.64,322.07c5.34.11,10.69.06,16,0-.07.91-.11,1.84-.14,2.76l-6.27-.09c0,5.62-.06,11.24,0,16.86-.53.94-1,1.88-1.52,2.83,0-.41-.07-1.23-.09-1.63l-1.26.25c-.08-6.12,0-12.24,0-18.36-2,.05-4.05.1-6,.18l.13-.94-1.21.21Z" transform="translate(-107.17 -87.84)"/><path class="cls-1" d="M466,357.58a14.87,14.87,0,0,1,19.12,8.92,24.37,24.37,0,0,1,.34,9.09c-.47,1.13-.9,2.29-1.29,3.46l-.25,0a23.1,23.1,0,0,1-5.84,6l-.93.11a15.76,15.76,0,0,1-12.26,0h-.93a28.48,28.48,0,0,1-6.12-6.28q-.58-1.62-1.26-3.18c-.29-3.06-.61-6.25.54-9.17.52-1.07,1-2.15,1.51-3.23a40.19,40.19,0,0,1,4.1-4.05Zm3.82,1.59c-1.77.63-3.53,1.23-5.29,1.85a14,14,0,0,0-5.8,12.7c.5,1.23,1,2.48,1.49,3.72l2,2.79,1.05,1.06a10.51,10.51,0,0,0,5.24,2l0,.57c1.47,0,3-.05,4.44-.05l5.44-2.1,0-.44a12.77,12.77,0,0,0,3.71-14.92A13.71,13.71,0,0,0,469.79,359.17Z" transform="translate(-107.17 -87.84)"/><path class="cls-1" d="M464.65,363.15c3.19-.09,6.4-.09,9.6,0,1.14.66,2.25,1.35,3.38,2.06-.34,2.13.88,5.38-1.78,6.34,3,1.18,1.12,5.41,2,7.9l-3.18-.32c0-2-.09-4-.16-6-2.31-.1-4.62-.15-6.92-.17,0,2.45,0,4.91-.17,7.37-.94-.45-2.12-.56-2.74-1.47C464.53,373.59,464.66,368.37,464.65,363.15Zm2.9,2.71v4.39c2.34,0,4.68-.09,7-.23,0-1.33,0-2.66,0-4C472.25,365.92,469.9,365.87,467.55,365.86Z" transform="translate(-107.17 -87.84)"/></svg>