<svg id="Layer_1" data-name="Layer 1" xmlns="http://www.w3.org/2000/svg" viewBox="0 0 2499.87 498.03"><defs><style>.cls-1{fill:#00000f;}</style></defs><title>logo-xboxone</title><path class="cls-1" d="M1599.44,402.29,1504,272.77l-95.32,129.52h-39.27l114.72-156.48L1379.37,103.57h39.27l85.37,116,85.38-116h39.24L1523.94,245.78l114.74,156.51Zm-743.6-.06L741,245.78,845.76,103.57H806.49l-85.4,116-85.32-116H596.61L701.33,245.78,586.5,402.23h39.32l95.33-129.46,95.4,129.46Z" transform="translate(-0.06)"/><path class="cls-1" d="M1074.19,257.09a83.65,83.65,0,0,0-19.59-12.46,67.65,67.65,0,0,0,35.92-59.82c0-19.12-7-81.27-97.1-81.27H872.13V232.32h-40.4c-5.23,6.84-17.15,23.25-21.68,30h62.08V402.23l121.32,0c65.71,0,106.52-33.35,106.52-87.21,0-23.51-8.87-43.48-25.78-58M905.66,134.72h87.79c23.74,0,63.54,5.92,63.54,47.47,0,31.41-23.17,50.13-63.54,50.13H905.66v-97.6ZM993.42,371.1H905.64V262.38h87.78c33.28,0,73.1,9.19,73.1,52,0,49.32-45.79,56.7-73.1,56.7M1257.76,96.68c-83.91,0-142.55,64.17-142.55,156.06s58.64,156.14,142.55,156.14,142.32-64.11,142.32-156.14S1341.59,96.68,1257.76,96.68m0,280.6c-63.93,0-108.72-51.23-108.72-124.54s44.79-124.51,108.72-124.51,108.36,51.21,108.36,124.51-44.53,124.54-108.36,124.54M74.36,71.6l-.23.21v0A248.9,248.9,0,0,0,51,399.82a1.09,1.09,0,0,0,1.33.42,1,1,0,0,0,.29-1.28c-19-58.7,78.05-201,128.18-260.6a1.28,1.28,0,0,0,.37-.73,1.16,1.16,0,0,0-.47-.81C96.33,52.88,73.81,72.07,74.13,71.81m349.64-.21.23.21v0a248.94,248.94,0,0,1,23.14,328,1.08,1.08,0,0,1-1.33.42,1.05,1.05,0,0,1-.29-1.28c19-58.7-78-201.06-128.07-260.73a1.12,1.12,0,0,1-.37-.71,1.07,1.07,0,0,1,.47-.83C401.91,52.75,424.26,72.07,424,71.81M249.06,0c50.24,0,91.58,13.77,129.7,36.44a.91.91,0,0,1-.78,1.65c-48.2-10.42-121.48,31.24-128.39,35.4a1,1,0,0,1-.53.21.94.94,0,0,1-.54-.21c-18.38-10.55-86.11-46-128.76-35.14a.92.92,0,0,1-.78-1.67C157.09,13.77,199,0,249.06,0m0,199.7a1.39,1.39,0,0,1,.79.4c74.51,56.65,202,196.71,163.1,236.32l.06-.05,0,.05h-.05a248.83,248.83,0,0,1-327.81,0l-.05-.05.05.05C46.27,396.81,173.77,256.75,248.2,200.1a1.64,1.64,0,0,1,.86-.4m1969.28-96.13V348.69l-180.56-245.3-29.61-.06V401.79h33.24V162.08L2218.29,402l33.33,0V103.57Zm-382.78-6.94c-83.91,0-142.58,64.2-142.58,156.06,0,92,58.67,156.24,142.58,156.24s142.32-64.22,142.32-156.24c0-91.84-58.49-156.06-142.32-156.06m0,280.65c-63.93,0-108.73-51.23-108.73-124.59s44.8-124.51,108.73-124.51,108.36,51.23,108.36,124.51-44.53,124.59-108.36,124.59m486.82-4.47V262.38h164.33V233.16H2322.38V132.55h175.49V103.36H2289V402h211V372.81Z" transform="translate(-0.06)"/></svg>